<svg xmlns="http://www.w3.org/2000/svg" viewBox="0 0 985.38 178.66"><defs><style>.cls-1{fill:#19bb9b;}.cls-2{fill:#2f4052;}</style></defs><title>Asset 1</title><g id="Layer_2" data-name="Layer 2"><g id="Layer_1-2" data-name="Layer 1"><g id="Cqflh7.tif"><path class="cls-1" d="M929.37,178.14c-10.25,0-18.79-1.33-27-4.82a49.89,49.89,0,0,1-24.27-21.65c-5.27-9.18-7.78-19.13-8.45-29.65a81.52,81.52,0,0,1,3.11-29.82c4.39-14,12.41-25.28,25.68-32.15,17.2-8.9,35.07-9.15,52.86-2.39,13.33,5.07,22.72,14.8,28.11,28.07,7.47,18.38,7.77,37.17,1.6,55.84-6,18.18-18.59,29.92-37.3,34.7A56.41,56.41,0,0,1,929.37,178.14ZM928.86,70c-17.63-.51-29.88,8.27-34.55,24.34a78.72,78.72,0,0,0-.38,41.88,34.43,34.43,0,0,0,7.43,14.5c7,7.94,16,10.95,26.27,10.83,7.08-.08,13.88-1.38,19.86-5.54,6.8-4.73,10.72-11.47,12.88-19.22a77.13,77.13,0,0,0-.17-42.56,33.64,33.64,0,0,0-11-17.41C943,71.73,935.7,70,928.86,70Z"/><path class="cls-2" d="M579,108.32c-.15-9,.7-17.78-3.13-26-3.31-7.15-9-10.77-16.63-11.8-11.77-1.58-21.87,2.45-31.24,9.08a28.5,28.5,0,0,1-3.62,2.18c-4.47,2.25-8,1.21-10.56-3.06-1.22-2.07-2.35-4.2-3.6-6.44A73.15,73.15,0,0,1,525,61.07c11.46-6.5,23.89-8.8,36.92-8,17.4,1.11,31.09,11.4,35.89,29.06A71,71,0,0,1,600,100.9q0,36.25,0,72.49v3.19c-4.12-.11-8,.22-11.9-.25a5.26,5.26,0,0,1-5-4.45c-.79-3.72-1.66-7.43-2.57-11.45-2.85,2.3-5.55,4.58-8.35,6.71-14,10.68-29.65,14-46.57,9.39-12.69-3.45-20.51-13.15-21.31-28-.59-10.89,4.14-19.23,12.89-25.43,10.36-7.33,22.33-10.29,34.55-12.45A181,181,0,0,1,579,108.32Zm-.11,13.84a8.71,8.71,0,0,0-1.27-.16,143.79,143.79,0,0,0-26.7,2.86c-7,1.49-13.89,3.33-19.69,7.81s-7.3,10.29-5.95,17.09c1.31,6.61,5.29,11,11.82,12.74,6.15,1.63,12.36,1.14,18.48-.39,9.43-2.36,16.81-8,23.31-14.83Z"/><path class="cls-2" d="M653.77,176.44h-21.3V55.09c4.8.06,9.59-.39,14.36.26,2.44.33,3.67,2.16,4,4.48.53,3.28.93,6.57,1.39,9.86.11.8-.1,1.69.71,2.54,2.74-2.37,5.15-5.1,8-7.39,14.89-12,31.43-15,49.32-8.43,9.13,3.37,15.2,10.4,19,19.34,3.3,7.78,4.37,16,4.4,24.34.09,24.91,0,49.83,0,74.74v1.59H712.53c-.56-.74-.24-1.69-.24-2.56,0-24.33,0-48.66,0-73,0-5.9-.53-11.72-2.89-17.3-3.3-7.8-9.29-11.85-17.43-13-13.42-1.89-24.32,3.33-33.87,12.21-1.46,1.36-2.91,2.74-4.29,4Z"/><path class="cls-2" d="M79.87,144.84V55.26h21.27v121.2c-4.41,0-8.8.19-13.17-.06-3.3-.19-4.74-1.8-5.27-5.19-.6-3.82-1.08-7.66-1.64-11.63a7.32,7.32,0,0,0-2.82,2.17c-5.12,5.34-10.93,9.89-17.76,12.63-15.43,6.18-30.65,6.27-44.76-3.67-7.05-5-11.07-12.21-13.38-20.42C.39,143.34,0,136.21,0,129q0-35.49,0-71V55.21H21.1c.52.82.25,1.76.25,2.63q0,35.37,0,70.73c0,6.39.2,12.76,2.67,18.84,3.42,8.4,9.81,12.67,18.6,13.66,13.6,1.52,24.55-3.86,34-13.19C77.67,146.83,78.79,145.84,79.87,144.84Z"/><path class="cls-2" d="M284.55,163.7c2-3.26,3.62-6.72,6.18-9.55,1.88-2.09,4.89-2.4,7.78-.82,3.33,1.83,6.45,4.07,9.85,5.74,10,4.89,20.29,5.59,30.64,1.52,10-3.94,13.61-13.76,11.16-22-1.68-5.65-6.6-8.32-11.52-10.62-6.26-2.92-13.06-4.36-19.52-6.72s-13.13-4.56-19-8.57c-10.26-7-14-18.17-11.92-29.61,2.5-14.1,11.5-22.93,24.66-27.06,18.28-5.74,35.77-3.52,51.73,7.65,1.42,1,2.69,2.21,4.29,3.55-1.92,3.05-3.4,6.45-5.94,9.16-1.93,2.05-4.28,1.47-6.45.42-4.38-2.13-8.6-4.6-13.33-6-7.8-2.27-15.55-2.45-23.25.3-8,2.85-12.51,9.64-11.71,17.58.43,4.27,3.15,7,6.46,9.25,4.29,2.93,9.14,4.61,14,6.22,8.75,2.88,17.63,5.43,25.85,9.69,13.41,7,18,17.36,15.94,31.7-2,14-10,23.81-23.17,28.77-19.18,7.23-37.78,5.34-55.46-5.13A51.86,51.86,0,0,1,284.55,163.7Z"/><path class="cls-2" d="M487.19,69c-2,2.76-3.77,5.35-5.69,7.82-2.25,2.89-4.44,3.28-7.61,1.43-5.58-3.26-11.08-6.67-17.64-7.72-20.54-3.3-36.45,5.58-41.83,26.21a72.13,72.13,0,0,0,1.36,42.19c4.92,14.47,17.4,23.07,32.66,22.78a38.59,38.59,0,0,0,24.23-9,26.12,26.12,0,0,1,3.05-2.16,4.79,4.79,0,0,1,6.29.76c2.48,2.46,4.31,5.43,6.5,8.24A47.73,47.73,0,0,1,467,174.29a67.83,67.83,0,0,1-29.68,3.5c-13.24-1.45-24.42-7.07-33-17.49-10-12.23-13.77-26.57-14.17-42.05-.31-12,1.33-23.76,6.54-34.69,7.87-16.53,21-26.41,39.06-29.42,14.07-2.34,27.66-.94,40.29,6.23A52.72,52.72,0,0,1,487.19,69Z"/><path class="cls-2" d="M256.78,0V176.4H235.7V0Z"/><path class="cls-2" d="M157.78,176.46h-21.3V55.17c4.74,0,9.38-.16,14,.06,3.07.15,4.48,2.35,4.79,6.49q.54,7.46,1.09,14.92a4.57,4.57,0,0,0,.64,2.5,79,79,0,0,1,5.75-9.33c6.16-8.35,13.74-14.61,24.3-16.33,8.07-1.32,15.88-.6,23.22,3.79-.89,5.12-1.72,10.28-2.69,15.41-.53,2.81-2.31,3.85-5.43,3.2a73.76,73.76,0,0,0-11.27-2c-12.63-.67-21.6,5.07-28.11,15.41-.62,1-1.14,2-1.76,3a23.55,23.55,0,0,0-3.33,13.24c.2,22.65.09,45.31.09,68Z"/><path class="cls-1" d="M819.39,55.18H840.3V176.43H819.39Z"/><path class="cls-1" d="M814.9,16.45c.44-8.68,7.53-15.37,15.79-14.89a15.56,15.56,0,0,1,14.58,16c-.34,7.82-7.85,14.74-15.64,14.41C821.42,31.6,814.5,24.32,814.9,16.45Z"/><path class="cls-2" d="M788.78,163.46c0,8.56-6.53,14.9-15.27,14.88a14.82,14.82,0,0,1-14.63-14.86,15,15,0,1,1,29.91,0Z"/></g></g></g></svg>